# xmcd
#
# Track frame offsets:
#	190
#	13875
#	28230
#	50135
#	64200
#	76635
#	86812
#	101687
#	114010
#	125435
#	138082
#	148887
#
# Disc length: 2193 seconds
#
# Revision: 1
# Processed by: cddbd v1.4PL0 Copyright (c) Steve Scherf et al.
# Submitted via: audiograbber 1.80.04
#
DISCID=a4088f0c
DTITLE=Jimmy Reed - Jimmy Reed is Back
DYEAR=1994
DGENRE=Blues
TTITLE0=Ain't No Time for Fussin'
TTITLE1=Keep the Faith
TTITLE2=Wake Up at Daybreak
TTITLE3=Turn Me On Like a TV
TTITLE4=Knocking on Your Door
TTITLE5=Just a Poor Country Boy
TTITLE6=Tribute to a Friend
TTITLE7=Crazy About Oklahoma
TTITLE8=When I Woke Up This Morning
TTITLE9=I'm Leaving
TTITLE10=I Got to Keep Rollin'
TTITLE11=My Baby Told Me
EXTD=
EXTT0=
EXTT1=
EXTT2=
EXTT3=
EXTT4=
EXTT5=
EXTT6=
EXTT7=
EXTT8=
EXTT9=
EXTT10=
EXTT11=
PLAYORDER=
